<?xml version="1.0" standalone="no"?>
<!DOCTYPE svg PUBLIC "-//W3C//DTD SVG 20010904//EN"
 "http://www.w3.org/TR/2001/REC-SVG-20010904/DTD/svg10.dtd">
<svg version="1.0" xmlns="http://www.w3.org/2000/svg"
 width="260.000000pt" height="260.000000pt" viewBox="0 0 260.000000 260.000000"
 preserveAspectRatio="xMidYMid meet">
<metadata>
Created by potrace 1.11, written by Peter Selinger 2001-2013
</metadata>
<g transform="translate(0.000000,260.000000) scale(0.100000,-0.100000)"
fill="#000000" stroke="none">
<path d="M0 1300 l0 -1300 1300 0 1300 0 0 1300 0 1300 -1300 0 -1300 0 0
-1300z m1458 584 c110 -23 236 -91 319 -171 39 -38 81 -83 94 -101 24 -32 29
-33 159 -53 368 -56 553 -145 553 -266 0 -83 -62 -142 -202 -193 -84 -31 -264
-71 -406 -90 -72 -10 -93 -17 -105 -34 -68 -99 -204 -201 -329 -246 -306 -112
-655 -10 -837 244 -19 26 -29 30 -125 43 -118 17 -296 60 -382 93 -116 44
-183 118 -173 193 14 115 175 192 522 251 l133 22 44 60 c58 78 125 135 217
183 164 86 322 105 518 65z"/>
<path d="M1223 1775 c-172 -47 -315 -179 -364 -336 -21 -69 -25 -195 -8 -263
l11 -44 56 -6 c135 -14 452 -17 647 -7 291 16 281 14 294 67 15 58 14 168 -3
229 -59 222 -272 377 -514 374 -37 0 -91 -7 -119 -14z"/>
<path d="M474 1396 c-130 -27 -225 -57 -273 -87 l-34 -20 32 -20 c18 -11 65
-30 104 -44 75 -25 304 -71 312 -63 2 2 0 33 -6 67 -9 57 -6 125 8 174 6 22
-4 21 -143 -7z"/>
<path d="M1965 1285 c0 -129 1 -134 20 -130 11 2 70 13 131 25 152 27 314 84
314 110 0 15 -100 57 -190 80 -85 22 -232 50 -260 50 -13 0 -15 -22 -15 -135z"/>
<path d="M1630 978 c-63 -5 -240 -7 -393 -6 l-279 3 48 -43 c170 -154 441
-173 641 -44 48 31 111 89 102 95 -2 1 -56 -1 -119 -5z"/>
</g>
</svg>
